<svg width="40" height="40" viewBox="0 0 40 40" fill="none" xmlns="http://www.w3.org/2000/svg">
<path d="M2.28197 7.57469H13.14C13.2318 7.57469 13.318 7.53975 13.3831 7.47627L14.4262 6.45863C14.7294 6.16288 15.1324 6 15.5612 6H32.0257C32.7924 6 33.5042 6.37153 33.9299 6.99402L35.9032 9.88162C36.1831 10.2915 36.2088 10.8156 35.9707 11.2501C35.7327 11.6846 35.2706 11.9543 34.7657 11.9543H26.2799V12.7909H30.626C31.7781 12.7909 32.8146 13.4586 33.2666 14.4925L35.8113 20.311L38.0404 21.181C39.2308 21.6456 40 22.7537 40 24.0046V29.393C40 30.1966 39.3296 30.8506 38.5059 30.8506H35.9122C35.6106 32.6344 34.0187 34 32.1059 34C30.1932 34 28.6013 32.6344 28.2996 30.8506H14.1216C13.8199 32.6344 12.228 34 10.3153 34C8.40252 34 6.81059 32.6344 6.50895 30.8506H1.32812C0.595713 30.8506 -3.72529e-08 30.2695 -3.72529e-08 29.5549V9.80091C-3.72529e-08 8.57315 1.02345 7.57469 2.28197 7.57469ZM32.1059 32.7698C33.5385 32.7698 34.7037 31.633 34.7037 30.2355C34.7037 28.838 33.5385 27.7012 32.1059 27.7012C30.6734 27.7012 29.5082 28.838 29.5082 30.2355C29.5082 31.633 30.6734 32.7698 32.1059 32.7698ZM26.2799 29.6204H28.2986C28.3037 29.5894 28.3102 29.5594 28.3163 29.5289C28.3203 29.5082 28.3238 29.4875 28.3284 29.4669C28.3385 29.4186 28.3501 29.3709 28.3622 29.3232C28.3647 29.3133 28.3667 29.3035 28.3697 29.2936C28.3849 29.2361 28.4015 29.1795 28.4192 29.1234C28.4242 29.1071 28.4303 29.0909 28.4358 29.0742C28.4489 29.0348 28.4625 28.9954 28.4767 28.9566C28.4847 28.9359 28.4928 28.9152 28.5014 28.8946C28.5145 28.8606 28.5276 28.8266 28.5422 28.7932C28.5513 28.771 28.5614 28.7494 28.5715 28.7277C28.5856 28.6957 28.5997 28.6647 28.6149 28.6333C28.626 28.6111 28.6366 28.5895 28.6482 28.5673C28.6633 28.5373 28.6794 28.5068 28.6956 28.4773C28.7072 28.4556 28.7193 28.434 28.7314 28.4123C28.748 28.3828 28.7657 28.3533 28.7834 28.3242C28.796 28.3035 28.8086 28.2829 28.8212 28.2622C28.8404 28.2327 28.8595 28.2037 28.8792 28.1741C28.8923 28.1549 28.9049 28.1357 28.918 28.117C28.9397 28.086 28.9624 28.0555 28.9856 28.025C28.9972 28.0088 29.0088 27.9925 29.0209 27.9768C29.0522 27.9364 29.084 27.8976 29.1163 27.8587C29.1208 27.8528 29.1253 27.8469 29.1304 27.841C29.1677 27.7967 29.2066 27.7534 29.2459 27.7111C29.258 27.6978 29.2706 27.6855 29.2832 27.6727C29.311 27.6437 29.3387 27.6146 29.3675 27.5861C29.3836 27.5703 29.4003 27.5551 29.4164 27.5398C29.4421 27.5152 29.4683 27.4906 29.4951 27.4665C29.5127 27.4508 29.5309 27.435 29.5491 27.4193C29.5753 27.3966 29.6015 27.3745 29.6282 27.3523L29.6857 27.3066C29.7125 27.2854 29.7397 27.2647 29.767 27.2441C29.7866 27.2293 29.8068 27.2146 29.827 27.2003C29.8547 27.1801 29.883 27.1609 29.9117 27.1412C29.9319 27.1279 29.9521 27.1142 29.9723 27.1009C30.002 27.0812 30.0328 27.0625 30.0631 27.0438C30.0827 27.032 30.1024 27.0197 30.1226 27.0079C30.1559 26.9882 30.1902 26.9695 30.2245 26.9508C30.2421 26.9409 30.2593 26.9311 30.2764 26.9218C30.3253 26.8962 30.3743 26.8716 30.4237 26.8479C30.4277 26.8465 30.4313 26.8445 30.4353 26.8425C30.4888 26.8174 30.5433 26.7933 30.5977 26.7707C30.6154 26.7633 30.6335 26.7569 30.6512 26.7495C30.6885 26.7348 30.7264 26.72 30.7647 26.7057C30.7864 26.6979 30.8086 26.691 30.8303 26.6831C30.8651 26.6713 30.8999 26.6595 30.9352 26.6486C30.9589 26.6413 30.9826 26.6344 31.0068 26.6275C31.0411 26.6176 31.0754 26.6078 31.1097 26.5989C31.1344 26.5925 31.1591 26.5862 31.1844 26.5802C31.2187 26.5719 31.253 26.5645 31.2878 26.5571C31.313 26.5517 31.3382 26.5463 31.3639 26.5414C31.3992 26.535 31.4346 26.5286 31.4704 26.5232C31.4956 26.5187 31.5203 26.5148 31.546 26.5114C31.5828 26.5059 31.6202 26.5015 31.658 26.4971C31.6817 26.4946 31.7059 26.4912 31.7301 26.4892C31.7715 26.4853 31.8134 26.4823 31.8552 26.4799C31.8759 26.4784 31.8961 26.4764 31.9168 26.4759C31.9798 26.4725 32.0424 26.471 32.1059 26.471C32.1695 26.471 32.232 26.4725 32.2951 26.4759C32.3158 26.4764 32.3359 26.4784 32.3566 26.4799C32.3985 26.4823 32.4404 26.4853 32.4817 26.4892C32.5059 26.4912 32.5301 26.4946 32.5538 26.4971C32.5917 26.5015 32.629 26.5059 32.6658 26.5114C32.6916 26.5148 32.7163 26.5187 32.7415 26.5232C32.7773 26.5286 32.8126 26.535 32.8479 26.5414C32.8736 26.5463 32.8989 26.5517 32.9241 26.5571C32.9589 26.5645 32.9932 26.5719 33.0275 26.5802C33.0527 26.5862 33.0774 26.5925 33.1021 26.5989C33.1364 26.6078 33.1707 26.6176 33.205 26.6275C33.2293 26.6344 33.253 26.6413 33.2767 26.6486C33.312 26.6595 33.3468 26.6713 33.3816 26.6831C33.4033 26.691 33.4255 26.6979 33.4472 26.7057C33.4855 26.72 33.5233 26.7348 33.5607 26.7495C33.5783 26.7569 33.5965 26.7633 33.6141 26.7707C33.6686 26.7933 33.7231 26.8174 33.7765 26.8425C33.7806 26.8445 33.7841 26.8465 33.7881 26.8479C33.8376 26.8716 33.8865 26.8962 33.9354 26.9218C33.9526 26.9311 33.9697 26.9409 33.9874 26.9508C34.0217 26.9695 34.056 26.9882 34.0893 27.0079C34.1095 27.0197 34.1291 27.032 34.1488 27.0438C34.1791 27.0625 34.2098 27.0812 34.2396 27.1009C34.2598 27.1142 34.2799 27.1279 34.3001 27.1412C34.3289 27.1609 34.3571 27.1801 34.3849 27.2003C34.405 27.2146 34.4252 27.2293 34.4449 27.2441C34.4721 27.2647 34.4994 27.2854 34.5261 27.3066L34.5836 27.3523C34.6103 27.3745 34.6366 27.3966 34.6628 27.4193C34.681 27.435 34.6991 27.4508 34.7168 27.4665C34.7435 27.4906 34.7697 27.5152 34.7955 27.5398C34.8116 27.5551 34.8282 27.5703 34.8444 27.5861C34.8731 27.6146 34.9009 27.6437 34.9286 27.6727C34.9412 27.6855 34.9538 27.6978 34.966 27.7111C35.0053 27.7534 35.0441 27.7967 35.0815 27.841C35.0865 27.8469 35.091 27.8528 35.0956 27.8587C35.1279 27.8976 35.1596 27.9364 35.1909 27.9768C35.203 27.9925 35.2146 28.0088 35.2262 28.025C35.2494 28.0555 35.2721 28.086 35.2938 28.117C35.3069 28.1357 35.3195 28.1549 35.3327 28.1741C35.3523 28.2037 35.3715 28.2327 35.3907 28.2622C35.4033 28.2829 35.4159 28.3035 35.4285 28.3242C35.4462 28.3533 35.4638 28.3828 35.4805 28.4123C35.4926 28.434 35.5047 28.4556 35.5163 28.4773C35.5324 28.5068 35.5485 28.5373 35.5637 28.5673C35.5753 28.5895 35.5859 28.6111 35.597 28.6333C35.6121 28.6647 35.6262 28.6957 35.6404 28.7277C35.6504 28.7494 35.6605 28.771 35.6696 28.7932C35.6842 28.8266 35.6974 28.8606 35.7105 28.8946C35.719 28.9152 35.7271 28.9359 35.7352 28.9566C35.7493 28.9954 35.7629 29.0348 35.776 29.0742C35.7816 29.0909 35.7876 29.1071 35.7927 29.1234C35.8103 29.1795 35.827 29.2361 35.8421 29.2936C35.8451 29.3035 35.8472 29.3133 35.8497 29.3232C35.8618 29.3709 35.8734 29.4186 35.8835 29.4669C35.888 29.4875 35.8916 29.5082 35.8956 29.5289C35.9016 29.5594 35.9082 29.5894 35.9132 29.6204H38.5059C38.6346 29.6204 38.739 29.5185 38.739 29.393V26.8155H37.7554V25.5852H38.739V24.0046C38.739 23.2596 38.281 22.5997 37.5723 22.3232L35.2126 21.4025H26.2799V29.6204ZM26.2799 20.1722H34.3798L32.1069 14.9753C31.8532 14.3956 31.2721 14.0211 30.626 14.0211H26.2799V20.1722ZM10.3153 32.7698C11.7478 32.7698 12.913 31.633 12.913 30.2355C12.913 28.838 11.7478 27.7012 10.3153 27.7012C10.2704 27.7012 10.226 27.7022 10.1816 27.7047C8.98815 27.7637 8.00454 28.6131 7.77049 29.7252C7.76192 29.7665 7.75385 29.8084 7.74729 29.8502C7.73418 29.9338 7.7256 30.019 7.72106 30.1051C7.71854 30.1484 7.71753 30.1917 7.71753 30.2355C7.71753 31.633 8.88272 32.7698 10.3153 32.7698ZM1.26103 25.5852H2.24464V26.8155H1.26103V29.5549C1.26103 29.5909 1.2913 29.6204 1.32812 29.6204H6.50795C6.51299 29.5899 6.51955 29.5599 6.5256 29.5298C6.52963 29.5087 6.53316 29.4875 6.5377 29.4664C6.54779 29.4191 6.55889 29.3724 6.571 29.3261C6.57402 29.3153 6.57604 29.304 6.57907 29.2931C6.5942 29.2361 6.61084 29.18 6.6285 29.1239C6.63405 29.1066 6.6401 29.0894 6.64565 29.0727C6.65876 29.0338 6.67188 28.9949 6.686 28.957C6.69407 28.9354 6.70265 28.9147 6.71072 28.8936C6.72383 28.8601 6.73745 28.8266 6.75107 28.7937C6.76066 28.771 6.77074 28.7489 6.78083 28.7268C6.79496 28.6957 6.80908 28.6647 6.82421 28.6337C6.8348 28.6111 6.84641 28.589 6.8575 28.5668C6.87264 28.5368 6.88827 28.5073 6.90441 28.4773C6.91652 28.4556 6.92862 28.434 6.94073 28.4123C6.95788 28.3828 6.97503 28.3537 6.99269 28.3247C7.0053 28.3035 7.01791 28.2829 7.03102 28.2622C7.04969 28.2327 7.06885 28.2037 7.08853 28.1751C7.10114 28.1554 7.11425 28.1357 7.12736 28.117C7.14905 28.086 7.17175 28.056 7.19395 28.026C7.20605 28.0093 7.21816 27.9926 7.23077 27.9763C7.26103 27.9374 7.2918 27.8991 7.32358 27.8612C7.32913 27.8543 7.33417 27.8474 7.33972 27.841C7.37755 27.7967 7.41589 27.7534 7.45523 27.7111C7.46784 27.6978 7.48045 27.685 7.49306 27.6717C7.52081 27.6427 7.54855 27.6141 7.5768 27.5861C7.59294 27.5703 7.60958 27.5551 7.62623 27.5393C7.65195 27.5147 7.67768 27.4906 7.70441 27.4665C7.72207 27.4508 7.74073 27.435 7.75889 27.4188C7.78462 27.3966 7.81085 27.3745 7.83758 27.3528C7.85675 27.3371 7.87592 27.3213 7.89559 27.3061C7.92182 27.2854 7.94905 27.2647 7.97629 27.2441C7.99596 27.2293 8.01614 27.2146 8.03632 27.2003C8.06406 27.1801 8.09231 27.1609 8.12055 27.1417C8.14124 27.1279 8.16141 27.1142 8.18159 27.1009C8.21135 27.0812 8.24161 27.0625 8.27188 27.0443C8.29205 27.032 8.31173 27.0197 8.3319 27.0079C8.3652 26.9882 8.39899 26.9695 8.43329 26.9508C8.45095 26.9409 8.4681 26.9311 8.48625 26.9218C8.53417 26.8962 8.5826 26.8721 8.63203 26.8489C8.63607 26.847 8.6401 26.8445 8.64464 26.8425C8.69811 26.8174 8.75258 26.7933 8.80706 26.7707C8.82472 26.7633 8.84287 26.7569 8.86053 26.7495C8.89836 26.7348 8.93569 26.72 8.97402 26.7057C8.99571 26.6979 9.01791 26.691 9.0401 26.6831C9.0744 26.6713 9.1092 26.6595 9.14451 26.6486C9.16822 26.6413 9.19243 26.6344 9.21614 26.6275C9.25044 26.6176 9.28474 26.6078 9.31904 26.5989C9.34376 26.5925 9.36847 26.5862 9.39369 26.5802C9.42799 26.5719 9.4623 26.5645 9.4971 26.5571C9.52232 26.5517 9.54754 26.5463 9.57326 26.5414C9.60857 26.535 9.64389 26.5286 9.6797 26.5232C9.70492 26.5187 9.72964 26.5148 9.75536 26.5114C9.79218 26.5059 9.82951 26.5015 9.86734 26.4971C9.89105 26.4946 9.91526 26.4912 9.93947 26.4892C9.98083 26.4853 10.0227 26.4823 10.0646 26.4799C10.0852 26.4784 10.1054 26.4764 10.1261 26.4759C10.1892 26.4725 10.2517 26.471 10.3153 26.471C10.3788 26.471 10.4414 26.4725 10.5044 26.4759C10.5251 26.4764 10.5453 26.4784 10.566 26.4799C10.6078 26.4823 10.6497 26.4853 10.691 26.4892C10.7153 26.4912 10.7395 26.4946 10.7632 26.4971C10.801 26.5015 10.8383 26.5059 10.8752 26.5114C10.9009 26.5148 10.9256 26.5187 10.9508 26.5232C10.9866 26.5286 11.0219 26.535 11.0573 26.5414C11.083 26.5463 11.1082 26.5517 11.1334 26.5571C11.1682 26.5645 11.2025 26.5719 11.2368 26.5802C11.262 26.5862 11.2868 26.5925 11.3115 26.5989C11.3458 26.6078 11.3801 26.6176 11.4144 26.6275C11.4381 26.6344 11.4623 26.6413 11.486 26.6486C11.5213 26.6595 11.5561 26.6713 11.5904 26.6831C11.6126 26.691 11.6348 26.6979 11.6565 26.7057C11.6948 26.72 11.7322 26.7348 11.77 26.7495C11.7876 26.7569 11.8058 26.7633 11.8235 26.7707C11.8779 26.7933 11.9324 26.8174 11.9859 26.8425C11.9904 26.8445 11.9945 26.8465 11.9985 26.8489C12.0479 26.8721 12.0963 26.8962 12.1443 26.9218C12.1624 26.9311 12.1796 26.9409 12.1972 26.9508C12.231 26.9695 12.2653 26.9882 12.2986 27.0079C12.3188 27.0197 12.3385 27.032 12.3586 27.0443C12.3889 27.0625 12.4192 27.0812 12.4489 27.1009C12.4691 27.1142 12.4893 27.1279 12.51 27.1417C12.5382 27.1609 12.5665 27.1801 12.5942 27.2003C12.6144 27.2146 12.6346 27.2293 12.6542 27.2441C12.6815 27.2647 12.7087 27.2854 12.7349 27.3061C12.7546 27.3213 12.7738 27.3371 12.7929 27.3528C12.8197 27.3745 12.8459 27.3966 12.8716 27.4193C12.8898 27.435 12.9084 27.4508 12.9261 27.4665C12.9528 27.4906 12.9786 27.5152 13.0048 27.5398C13.0209 27.5551 13.0376 27.5703 13.0537 27.5861C13.082 27.6141 13.1102 27.6432 13.138 27.6722C13.1501 27.685 13.1632 27.6978 13.1753 27.7111C13.2146 27.7534 13.253 27.7967 13.2908 27.841C13.2958 27.8474 13.3009 27.8538 13.3059 27.8597C13.3377 27.8981 13.3695 27.9369 13.3997 27.9768C13.4124 27.9925 13.424 28.0088 13.4361 28.025C13.4588 28.0555 13.4815 28.086 13.5032 28.117C13.5163 28.1357 13.5289 28.1554 13.542 28.1746C13.5617 28.2037 13.5808 28.2327 13.5995 28.2622C13.6126 28.2829 13.6252 28.3035 13.6378 28.3242C13.6555 28.3533 13.6731 28.3828 13.6898 28.4123C13.7019 28.434 13.714 28.4556 13.7256 28.4773C13.7422 28.5068 13.7579 28.5373 13.7735 28.5673C13.7846 28.5895 13.7952 28.6111 13.8063 28.6333C13.8214 28.6647 13.8356 28.6962 13.8497 28.7277C13.8598 28.7494 13.8699 28.771 13.8789 28.7932C13.8936 28.8266 13.9067 28.8606 13.9203 28.8946C13.9284 28.9152 13.9364 28.9359 13.9445 28.9566C13.9591 28.9959 13.9723 29.0353 13.9854 29.0751C13.9909 29.0914 13.997 29.1071 14.002 29.1234C14.0197 29.1795 14.0363 29.2366 14.052 29.2936C14.054 29.3025 14.056 29.3118 14.058 29.3207C14.0706 29.3694 14.0822 29.4181 14.0928 29.4673C14.0974 29.487 14.1009 29.5072 14.1044 29.5274C14.1105 29.5584 14.117 29.5889 14.1226 29.6204H25.0189V11.3392C25.0189 10.9996 25.3014 10.7241 25.6494 10.7241H34.7657C34.7813 10.7241 34.8293 10.7241 34.859 10.6695C34.8888 10.6153 34.8625 10.5765 34.8535 10.5641L32.8807 7.67656C32.6895 7.39705 32.3702 7.23023 32.0257 7.23023H15.5612C15.4694 7.23023 15.3831 7.26517 15.318 7.32865L14.2749 8.34629C13.9718 8.64204 13.5687 8.80492 13.14 8.80492H2.28197C1.71904 8.80492 1.26103 9.25174 1.26103 9.80091V25.5852Z" fill="#E44848"/>
<path d="M4.84372 12.2981H12.5562C13.4475 12.2981 14.1729 13.0057 14.1729 13.8752V17.4631C14.1729 18.3326 13.4475 19.0402 12.5562 19.0402H4.84321C3.95192 19.0402 3.22657 18.3326 3.22657 17.4631V13.8752C3.22707 13.0057 3.95242 12.2981 4.84372 12.2981ZM4.48811 17.4626C4.48811 17.6535 4.6475 17.8095 4.84372 17.8095H12.5562C12.7524 17.8095 12.9118 17.654 12.9118 17.4626V13.8748C12.9118 13.6838 12.7524 13.5278 12.5562 13.5278H4.84321C4.647 13.5278 4.4876 13.6833 4.4876 13.8748L4.48811 17.4626Z" fill="#E44848"/>
</svg>
